<?xml version="1.0" encoding="UTF-8" standalone="no"?>
<!-- Created with Inkscape (http://www.inkscape.org/) -->

<svg
   version="1.1"
   id="svg9"
   width="236.58534"
   height="241.37759"
   viewBox="0 0 236.58534 241.37759"
   sodipodi:docname="logo.svg"
   inkscape:version="1.2.2 (732a01da63, 2022-12-09)"
   inkscape:export-filename="logo.svg"
   inkscape:export-xdpi="48.692787"
   inkscape:export-ydpi="48.692787"
   xmlns:inkscape="http://www.inkscape.org/namespaces/inkscape"
   xmlns:sodipodi="http://sodipodi.sourceforge.net/DTD/sodipodi-0.dtd"
   xmlns="http://www.w3.org/2000/svg"
   xmlns:svg="http://www.w3.org/2000/svg">
  <defs
     id="defs13" />
  <sodipodi:namedview
     id="namedview11"
     pagecolor="#ffffff"
     bordercolor="#000000"
     borderopacity="0.25"
     inkscape:showpageshadow="2"
     inkscape:pageopacity="0.0"
     inkscape:pagecheckerboard="0"
     inkscape:deskcolor="#d1d1d1"
     showgrid="false"
     inkscape:zoom="1.5136505"
     inkscape:cx="265.58311"
     inkscape:cy="286.0634"
     inkscape:window-width="2240"
     inkscape:window-height="1366"
     inkscape:window-x="-11"
     inkscape:window-y="-11"
     inkscape:window-maximized="1"
     inkscape:current-layer="g15"
     showguides="false" />
  <g
     inkscape:groupmode="layer"
     inkscape:label="Image"
     id="g15"
     transform="translate(0,-270.62241)">
    <path
       style="fill:#723006;stroke:none"
       d="m 22,327.35764 c 13.203,1.667 17.336,-8.959 26.17,-17.424 10.734,-10.287 22.826,-18.05199 36.83,-23.13999 26.979,-9.802 57.932,-5.14 83.00005,7.822 9.196,4.75599 16.701,12.32399 26,16.74199 v 1 c -12.911,-3.63 -27.564,-6.114 -41.00005,-4.83 -7.226,0.69 -16.786,5.443 -23.715,4.598 -3.309,-0.404 -6.196,-3.44 -9.285,-4.649 -7.976,-3.121 -17.445,-2.933 -24.999,1.233 -11.695,6.449 -7.643,14.307 -13.029,23.435 -2.362,4.003 -8.896,5.958 -12.972,7.609 -28.038,11.358 -69,14.793 -69,52.604 7.953,-3.3 14.938,-8.7 23,-11.985 12.328,-5.024 25.813,-6.449 39,-7.015 v 1 c -29.7,1.279 -77.316,29.387 -55,63 9.161,-19.334 21.375,-40.099 42,-49 -20.242,18.657 -44.021,47.905 -27,76 13.461,-6.872 23.679,-17.15 39,-20.764 38.26999,-9.026 75.547,8.764 114.00005,8.764 11.391,0 22.655,-1.249 34,-2.025 4.439,-0.303 12.662,-0.354 16.363,-2.999 4.006,-2.864 6.113,-10.501 7.637,-14.976 -17.435,0 -38.105,-0.316 -54,-8.27 -5.271,-2.638 -15.157,-8.382 -12.497,-15.729 3.77,-10.413 20.92,-11.76 29.497,-16.324 12.065,-6.421 18.199,-16.979 28,-25.677 2.843,21.116 -0.198,38.192 -3,59 7.264,-1.182 8.975,-9.873 10.999,-16 4.398,-13.311 4.492,-26.265 2.247,-40 -0.94,-5.754 -4.073,-12.234 -4.03,-18 0.07,-9.437 10.382,-15.154 4.62,-25.996 -6.099,-11.474 -16.625,-2.547 -23.666,-9.117 -11.297,-10.54 -20.511,-21.59599 -34.17,-29.45899 C 137.2,263.87665 86.643,264.66065 50,293.37265 39.227,301.81364 25.988,313.80564 22,327.35764 m 103,4 h -1 c -6.056,-9.449 -27.037,-17.708 -26.80101,1 0.065,5.177 4.07001,8.989 6.80101,13 -9.684,-1.354 -18.9,5.839 -28,8.562 -17.102,5.118 -35.323,5.014 -52,11.438 5.309,-5.135 14.176,-5.983 21,-8.344 13.986,-4.838 29.819,-10.115 41.837,-19.005 3.687,-2.727 1.799,-6.759 2.7,-10.651 1.378,-5.95 6.557,-11.031 12.463,-12.467 13.865,-3.37 20.097,4.418 23,16.467 m 39.00005,62 12,-17 c 15.815,0.017 29.227,-14.006 34,-28 l -12,8 14,-20 -12,4 8,-9 v -1 c -17.014,-4.032 -33.906,-13.841 -52,-12.482 -8.95805,0.673 -15.84305,5.514 -24.00005,8.482 15.923,-17.372 46.62005,-11.943 66.00005,-4.772 5.03,1.862 14.614,4.043 18.066,8.282 8.468,10.401 1.942,27.365 -4.966,36.49 -3.887,5.135 -8.687,9.117 -14.1,12.564 -10.161,6.471 -21.59,10.723 -33,14.436 m 7,-58 c -12,-6.526 -18.13405,-8.734 -31.00005,-2 8.485,-14.374 26.11805,-14.711 31.00005,2 m 53,-8.248 c 4.443,-0.124 4.19,6.289 0.05,6.782 -4.584,0.546 -4.491,-6.659 -0.05,-6.782 m -59,28.248 c -6.899,14.793 -26.69705,21.958 -42.00005,22 v -1 l 26,-11 v -1 l -19,-1 v -1 c 13.246,0 23.355,0.004 35.00005,-7 m 8,13 c -2.773,15.545 -16.369,21.716 -30.00005,25 v -1 l 30.00005,-24 m -90.00005,1 c -12.285,18.59 -40.443,46.76 -37,71 l -23,14 c 10.167,-30.501 28.831,-70.723 60,-85 m 15.99999,22 c -9.45299,13.419 -23.68499,32.423 -36.99999,42 6.47,-15.458 21.428,-35.06 36.99999,-42 m 22.00001,3 c -3.831,16.558 -5.241,25.013 4,40 -20.938,-6.043 -15.199,-26.623 -4,-40 m -17,3 c -3.069,13.386 -2.97,21.611 -1,35 -18.929,-3.008 -6.589,-26.468 1,-35 m 37,8 c -4.652,14.675 1.856,24.289 10,36 -22.77,-0.472 -24.79,-16.606 -24,-35 h 1 l 4,17 h 1 c 0.638,-6.361 3.429,-13.477 8,-18 m 9,11 c 10.84305,16.392 27.04705,22.186 46.00005,23 v 1 c -13.349,0 -29.895,0.242 -39.907,-10.043 -3.43805,-3.532 -7.60105,-8.842 -6.09305,-13.957 m -121,55 c 3.061,5.296 11.136,16.587 18,16.712 4.798,0.088 10.693,-5.444 15,-7.4 7.687,-3.489 16.602,-4.905 25,-5.273 31.946,-1.398 62.852,9.535 95.00005,4.371 16.135,-2.591 30.301,-5.088 37,-22.41 -18.887,3.663 -39.662,8.671 -59,6.83 C 113.977,459.80864 70.648,441.53264 29,471.35764 m 27,24 c 3.538,2.333 9.544,7.285 14,6.902 8.347,-0.717 15.176,-9.429 25,-9.863 23.48,-1.035 46.843,11.076 70.00005,9.817 7.015,-0.382 25.656,-9.905 23,-17.856 -29.256,6.035 -58.68005,1.176 -88.00006,-2.285 C 85.625,480.37464 65.111,482.72664 56,495.35764 m 21,10 c 28.43,10.952 55.64,6.741 84.00005,-1 -6.249,-2.696 -14.27905,-2.433 -21.00005,-3.427 -13.71,-2.03 -29.129,-5.723 -43,-4.403 -7.486,0.712 -16.345,1.399 -20,8.83 z"
       id="path177"
       inkscape:export-filename="path177.svg"
       inkscape:export-xdpi="46.98"
       inkscape:export-ydpi="46.98" />
  </g>
</svg>
